<svg xmlns="http://www.w3.org/2000/svg" width="475.73" height="96" viewBox="0 0 475.73 96"><title>TorbScript</title><defs><linearGradient id="torb-lockup-depth" x1="0" x2="0" y1="0" y2="96" gradientUnits="userSpaceOnUse"><stop offset="0" stop-color="#F33F49"/><stop offset="1" stop-color="#8E1018"/></linearGradient></defs><path fill="url(#torb-lockup-depth)" d="M6.43 24a48 48 0 0 1 83.14 0ZM.38 42H39v53.15A48 48 0 0 1 .38 42m95.24 0H57v53.15A48 48 0 0 0 95.62 42"/><path fill="#14110F" d="M144.91 72h-11.75V33.1H120V24h38.13v9.1h-13.22zm34.08.7h-1.68q-5.04 0-9.03-2.24t-6.26-6.26-2.28-9.41v-1.33q0-5.46 2.28-9.48t6.26-6.23 9.03-2.2h1.68q5.03 0 9.02 2.2t6.26 6.23q2.28 4.02 2.28 9.48v1.33q0 5.38-2.28 9.44t-6.26 6.27-9.02 2.2m-.84-7q1.88 0 3.39-.9 1.5-.92 2.41-2.63.91-1.72.91-4.02V50.1q0-2.38-.9-4.06-.92-1.68-2.42-2.59t-3.4-.9q-1.88 0-3.39.9-1.5.91-2.41 2.6-.91 1.67-.91 4.05v8.05q0 2.3.9 4.02.92 1.71 2.42 2.62t3.4.91m35.33 6.3h-10.84V36.24h8.25l1.26 5.18q.21-.28.8-1.22.6-.95 1.8-2.03 1.18-1.09 2.93-1.86t4.13-.77q3.57 0 5.8 1.34 2.24 1.32 3.33 3.8 1.08 2.5 1.08 5.92 0 .77-.07 1.78l-.14 1.86h-9.1V48.7q0-1.19-.45-2.38t-1.43-1.92-2.66-.74q-1.26 0-2.17.5-.9.48-1.47 1.29-.56.8-.8 1.74-.25.95-.25 1.93zm42.9.7q-7.77 0-11.9-6.16L240.7 72h-3.99V21.62h10.99V40.3q1.6-2.1 4.06-3.42 2.45-1.34 6.01-1.34 3.78 0 6.97 1.79 3.18 1.78 5.07 5.6t1.89 9.83v1.54q0 6.23-2.14 10.32-2.13 4.1-5.6 6.09t-7.59 1.99m-2.45-7q1.74 0 3.1-.9 1.37-.92 2.18-2.67.8-1.75.8-4.33v-7.56q0-2.38-.77-4.06t-2.1-2.55-3.07-.88-3.19.88-2.3 2.55-.88 4.13v7.56q0 2.59.84 4.33t2.27 2.63 3.12.87m41.2 7q-5.17 0-9.5-1.54-4.35-1.54-6.97-4.83t-2.62-8.6v-.74q0-.38.07-.8h10.77q-.07.28-.07.52v.6q0 1.88.95 3.32.94 1.43 2.8 2.24 1.85.8 4.72.8 3.08 0 4.97-.56t2.73-1.71.83-2.83q0-1.9-1.43-3.01-1.43-1.12-3.81-1.82t-5.25-1.33-5.7-1.58-5.22-2.48-3.84-4.1-1.48-6.47q0-4.82 2.66-8.04t7-4.83 9.59-1.61q5.1 0 9.27 1.47t6.65 4.58 2.48 8.01v.91h-10.64v-.63q0-1.74-.87-3t-2.59-1.96-4.16-.7q-2.38 0-4.1.49t-2.62 1.43-.9 2.48q0 1.96 1.46 3.08 1.47 1.12 3.85 1.79t5.28 1.3 5.77 1.5 5.29 2.41 3.85 4.02q1.43 2.49 1.43 6.27 0 5.73-2.7 9.23-2.69 3.5-7.38 5.11t-10.56 1.61m43.32 0h-1.54q-4.55 0-8.33-2.27-3.77-2.28-6.01-6.23t-2.24-8.92V52.9q0-3.78 1.33-6.93t3.67-5.5 5.39-3.63 6.54-1.3h1.54q4.97 0 8.5 1.9 3.53 1.88 5.42 5.24t1.9 7.84h-9.52q0-2.66-.77-4.44t-2.17-2.66-3.5-.88q-2.8 0-4.72 1.93-1.93 1.92-1.93 5.42v8.33q0 3.5 1.79 5.49 1.78 2 5 2 2.3 0 3.81-.78 1.5-.77 2.28-2.52.77-1.74.77-4.68h8.95q0 4.75-2.06 8.11t-5.7 5.11-8.4 1.75m32.75-.7h-10.85V36.24h8.26l1.26 5.18q.2-.28.8-1.22.6-.95 1.79-2.03 1.19-1.09 2.94-1.86 1.74-.77 4.12-.77 3.57 0 5.81 1.34 2.24 1.32 3.32 3.8 1.09 2.5 1.09 5.92 0 .77-.07 1.78l-.14 1.86h-9.1V48.7q0-1.19-.45-2.38-.46-1.19-1.44-1.92-.98-.74-2.66-.74-1.25 0-2.16.5-.91.48-1.47 1.29-.56.8-.8 1.74-.25.95-.25 1.93zm34.5 0h-11V36.24h11zm.06-42.12h-11.2v-8.26h11.2zm18.82 54.79H413.6V36.25h8.6l1.2 4.47q1.53-2.17 4.16-3.67t6.26-1.5q4.2 0 7.52 1.78 3.33 1.78 5.29 5.7 1.95 3.92 1.95 10.22v1.47q0 5.95-1.95 9.97-1.96 4.02-5.18 6.02-3.22 1.99-7 1.99t-6.2-1.37q-2.4-1.36-3.67-3.39zm6.23-19.04q1.75 0 3.12-.9 1.36-.92 2.17-2.63.8-1.72.8-4.02v-7.56q0-2.59-.8-4.34-.81-1.75-2.17-2.62-1.37-.88-3.12-.88-1.68 0-3.11.88-1.44.87-2.28 2.59t-.84 4.37v7.56q0 2.38.8 4.05.81 1.68 2.25 2.6 1.43.9 3.18.9m36.8 7.07q-3.28 0-5.8-.84t-3.95-2.9q-1.44-2.07-1.44-5.5V44.3h-3.92v-8.05h4.27l3.85-11.4h6.79v11.4h8.32v8.05h-8.32v16.59q0 3.07 1.26 3.95 1.26.87 2.72.87.78 0 2.14-.31 1.36-.32 2.2-.67v6.58q-.98.42-2.48.77t-3 .49-2.63.14"/></svg>
